<?xml version="1.0" encoding="utf-8"?>
<!-- Generator: Adobe Illustrator 12.0.1, SVG Export Plug-In . SVG Version: 6.00 Build 51448)  -->
<!DOCTYPE svg PUBLIC "-//W3C//DTD SVG 1.1//EN" "http://www.w3.org/Graphics/SVG/1.1/DTD/svg11.dtd" [
	<!ENTITY ns_svg "http://www.w3.org/2000/svg">
	<!ENTITY ns_xlink "http://www.w3.org/1999/xlink">
]>
<svg  version="1.1"
	 id="svg4593" xmlns:dc="http://purl.org/dc/elements/1.1/" xmlns:cc="http://creativecommons.org/ns#" xmlns:rdf="http://www.w3.org/1999/02/22-rdf-syntax-ns#" xmlns:svg="http://www.w3.org/2000/svg" xmlns:sodipodi="http://sodipodi.sourceforge.net/DTD/sodipodi-0.dtd" inkscape:version="0.91 r13725" xmlns:inkscape="http://www.inkscape.org/namespaces/inkscape" sodipodi:docname="github-repo-after-first-push.svg"
	 xmlns="&ns_svg;" xmlns:xlink="&ns_xlink;" width="770" height="500" viewBox="0 0 770 500"
	 overflow="visible" enable-background="new 0 0 770 500" xml:space="preserve">
<sodipodi:namedview  bordercolor="#666666" objecttolerance="10" gridtolerance="10" guidetolerance="10" inkscape:pageopacity="0" inkscape:pageshadow="2" inkscape:window-width="1362" inkscape:window-height="729" showgrid="false" fit-margin-top="0" pagecolor="#ffffff" borderopacity="1" fit-margin-right="0" inkscape:cx="327.21322" inkscape:zoom="0.83382282" fit-margin-bottom="0" inkscape:window-maximized="0" inkscape:window-x="0" inkscape:cy="187.90606" inkscape:window-y="18" showguides="true" fit-margin-left="0" inkscape:current-layer="svg4593" id="namedview4774">
	</sodipodi:namedview>
<g id="g5357" transform="translate(-4.520231,-9)">
	<g id="g5130">
		<rect id="rect4596" x="7" y="12" fill="#FFFFFF" stroke="#000000" stroke-miterlimit="10" width="603.785" height="244"/>
		<g id="Layer_5">
			<g id="g4654">
				<path id="path4656" inkscape:connector-curvature="0" fill="#B5B5B5" stroke="#FFFFFF" stroke-miterlimit="10" d="M598,63
					c0-8.284-6.716-15-15-15H198c-8.284,0-15,6.716-15,15v167c0,8.284,6.716,15,15,15H583c8.284,0,15-6.716,15-15V63z"/>
				<rect id="rect4658" x="197" y="59" fill="none" width="425" height="70.269"/>
				<text transform="matrix(1 0 0 1 188.0002 66.4199)" font-family="'Consolas'" font-size="18">.git</text>
				<text transform="matrix(1 0 0 1 104.9768 81.0195)" font-family="'Consolas'" font-size="10.8">origin https://github.com/seltmann/software-carpentry-2016.git</text>
			</g>
			<rect id="rect4666" x="16" y="19" fill="none" width="195.585" height="24.449"/>
			<text id="text4668" transform="matrix(1 0 0 1 16.0002 28.707)" font-family="'Helvetica'" font-size="13.5">~/Desktop/seltmann/software-carpentry-2016</text>
		</g>
		<g id="Layer_1">
			<g id="g4721">
				<rect id="rect4723" x="24" y="85" fill="#DCDEE0" width="100" height="128"/>
				<rect id="rect4725" x="24" y="85" fill="none" stroke="#85888D" stroke-width="2" width="100" height="128"/>
				<line id="line4727" fill="none" stroke="#000000" stroke-width="2" x1="37" y1="105" x2="111" y2="105"/>
				<line id="line4729" fill="none" stroke="#000000" stroke-width="2" x1="37" y1="111" x2="111" y2="111"/>
				<line id="line4731" fill="none" stroke="#000000" stroke-width="2" x1="37" y1="117" x2="111" y2="117"/>
				<line id="line4733" fill="none" stroke="#70BF41" stroke-width="2" x1="37" y1="129" x2="111" y2="129"/>
			</g>
		</g>
		<rect id="rect4742" x="164" y="146.069" fill="none" width="52.743" height="14"/>
		<g id="g5114">
			<g id="g4736">
				<rect id="rect4738" x="150.871" y="136.768" fill="#45BEEE" width="45.956" height="30.604"/>
				<polygon id="polygon4740" fill="#45BEEE" points="193.467,181.695 234.02,151.163 193.467,121.571 				"/>
			</g>
			<text id="text4744" transform="matrix(1 0 0 1 164.0002 154.3496)" font-family="'Consolas'" font-size="12">git add</text>
		</g>
		<rect id="rect4752" x="376.98" y="146.069" fill="none" width="85.542" height="14"/>
		<g id="g5108">
			<g id="g4746">
				<rect id="rect4748" x="381.251" y="136.768" fill="#45BEEE" width="45.956" height="30.604"/>
				<polygon id="polygon4750" fill="#45BEEE" points="423.847,181.695 464.399,151.163 423.847,121.571 				"/>
			</g>
			<text id="text4754" transform="matrix(1 0 0 1 386.7639 154.3496)" font-family="'Consolas'" font-size="12">git commit</text>
		</g>
		<rect id="rect4766" x="229" y="206" fill="none" width="147" height="17"/>
		<g id="g5093">
			<g id="Layer_3">
				<g id="g4671">
					
						<linearGradient id="path4680_1_" gradientUnits="userSpaceOnUse" x1="308.0197" y1="383.0146" x2="308.0197" y2="327.7666" gradientTransform="matrix(1 0 0 -1 -4.52 507)">
						<stop  offset="0.0982" style="stop-color:#C4C4C4"/>
						<stop  offset="0.5326" style="stop-color:#686868"/>
						<stop  offset="1" style="stop-color:#000000"/>
					</linearGradient>
					<path id="path4680" inkscape:connector-curvature="0" fill="url(#path4680_1_)" stroke="#231F20" stroke-miterlimit="10" d="
						M253.453,178.205c0-9.264,22.404-16.777,50.047-16.777c27.643,0,50.045,7.514,50.045,16.777v1.029c0,0,0-2.115,0-3.117
						c0-1.007,0-35.745,0-35.745v0.394c0-9.27-22.402-16.78-50.045-16.78c-27.643,0-50.047,7.51-50.047,16.78v-0.394
						c0,0,0,34.519,0,35.733c0,1.205,0,3.129,0,3.129V178.205z"/>
					<g id="g4682">
						<path id="path4684" inkscape:connector-curvature="0" fill="#FFFFFF" stroke="#231F20" stroke-miterlimit="10" d="
							M353.545,140.373c0,0,0,34.738,0,35.745c0,1.002,0.355,3.117,0.355,3.117c0,9.27-22.758,16.779-50.4,16.779
							c-27.642,0-50.4-7.51-50.4-16.779c0,0,0.354-1.924,0.354-3.129c0-1.214,0-35.733,0-35.733
							c0,9.274,22.404,16.785,50.047,16.785S353.545,149.647,353.545,140.373L353.545,140.373z"/>
					</g>
				</g>
				<g id="g4686">
					<polygon id="polygon4688" fill="#FFFFFF" stroke="#000000" stroke-miterlimit="10" points="341.719,134.965 282.411,134.965 
						269.235,149.459 328.542,149.459 					"/>
					<line id="line4690" fill="none" stroke="#70BF41" stroke-width="2" x1="282.411" y1="140.894" x2="331.165" y2="140.894"/>
				</g>
			</g>
			<text id="text4768" transform="matrix(1 0 0 1 269.4768 214.6279)" font-family="'Helvetica'" font-size="12">staging area</text>
		</g>
		<rect id="rect4770" x="464.785" y="219" fill="none" width="147" height="17"/>
		<g id="g5075">
			<g id="Layer_4">
				
					<linearGradient id="path4700_1_" gradientUnits="userSpaceOnUse" x1="541.696" y1="449.3418" x2="541.696" y2="394.0879" gradientTransform="matrix(1 0 0 -1 -4.52 507)">
					<stop  offset="0.0982" style="stop-color:#C4C4C4"/>
					<stop  offset="0.5326" style="stop-color:#686868"/>
					<stop  offset="1" style="stop-color:#000000"/>
				</linearGradient>
				<path id="path4700" inkscape:connector-curvature="0" fill="url(#path4700_1_)" stroke="#231F20" stroke-miterlimit="10" d="
					M487.13,111.882c0-9.268,22.407-16.781,50.048-16.781c27.641,0,50.047,7.513,50.047,16.781v1.03c0,0,0-2.118,0-3.121
					s0-35.739,0-35.739v0.388c0-9.268-22.406-16.781-50.047-16.781c-27.641,0-50.048,7.513-50.048,16.781v-0.388
					c0,0,0,34.519,0,35.729c0,1.209,0,3.132,0,3.132V111.882z"/>
				<g id="g4702">
					<path id="path4704" inkscape:connector-curvature="0" fill="#FFFFFF" stroke="#231F20" stroke-miterlimit="10" d="
						M587.021,151.283c0,0,0,34.738,0,35.74s0.354,3.121,0.354,3.121c0,9.268-22.76,16.779-50.399,16.779
						c-27.641,0-50.399-7.512-50.399-16.779c0,0,0.354-1.924,0.354-3.133c0-1.209,0-35.729,0-35.729
						c0,9.268,22.406,16.781,50.047,16.781C564.614,168.064,587.021,160.551,587.021,151.283z"/>
				</g>
				<g id="g4706">
					<path id="path4708" inkscape:connector-curvature="0" fill="#FFFFFF" stroke="#231F20" stroke-miterlimit="10" d="
						M587.021,112.601c0,0,0,34.736,0,35.739c0,1.002,0.354,3.121,0.354,3.121c0,9.268-22.76,16.779-50.399,16.779
						c-27.641,0-50.399-7.512-50.399-16.779c0,0,0.354-1.923,0.354-3.132s0-35.728,0-35.728c0,9.268,22.406,16.78,50.047,16.78
						C564.614,129.381,587.021,121.869,587.021,112.601z"/>
				</g>
				<g id="g4710">
					<path id="path4712" inkscape:connector-curvature="0" fill="#FFFFFF" stroke="#231F20" stroke-miterlimit="10" d="
						M587.021,73.628c0,0,0,34.737,0,35.739s0.354,3.12,0.354,3.12c0,9.269-22.76,16.781-50.399,16.781
						c-27.641,0-50.399-7.513-50.399-16.781c0,0,0.354-1.922,0.354-3.131s0-35.728,0-35.728c0,9.268,22.406,16.78,50.047,16.78
						C564.614,90.409,587.021,82.896,587.021,73.628z"/>
				</g>
				<g id="g4714">
					<polygon id="polygon4716" fill="#FFFFFF" stroke="#000000" stroke-miterlimit="10" points="573.216,66.381 513.908,66.381 
						500.732,80.875 560.039,80.875 					"/>
					<line id="line4718" fill="none" stroke="#70BF41" stroke-width="2" x1="513.908" y1="72.311" x2="562.662" y2="72.311"/>
				</g>
			</g>
			<text id="text4772" transform="matrix(1 0 0 1 511.9421 227.6279)" font-family="'Helvetica'" font-size="12">repository</text>
		</g>
		<rect id="rect4977" x="464.785" y="219" fill="none" width="147" height="17"/>
	</g>
	<g id="g5323" transform="translate(53.968319,0)">
		<g id="g5196" transform="translate(96.572143,0)">
			<rect id="rect4811" x="7" y="262" fill="#FFFFFF" stroke="#000000" stroke-miterlimit="10" width="603.785" height="244"/>
			<path id="path4817" inkscape:connector-curvature="0" fill="#B5B5B5" stroke="#FFFFFF" stroke-miterlimit="10" d="M598,313
				c0-8.284-6.716-15-15-15H198c-8.284,0-15,6.716-15,15v167c0,8.284,6.716,15,15,15h385c8.284,0,15-6.716,15-15V313z"/>
			<rect id="rect4819" x="197" y="309" fill="none" width="425" height="70.269"/>
			<text transform="matrix(1 0 0 1 196.9998 321.4199)" font-family="'Consolas'" font-size="18">.git</text>
			<rect id="rect4827" x="16" y="269" fill="none" width="195.585" height="24.449"/>
			<text id="text4829" transform="matrix(1 0 0 1 15.9998 278.707)" font-family="'Helvetica'" font-size="13.5">https://github.com/seltmann/software-carpentry-2016.git</text>
			<g id="g5055" transform="translate(0,250)">
				<g id="g5023">
					
						<linearGradient id="path5033_1_" gradientUnits="userSpaceOnUse" x1="391.1565" y1="199.3408" x2="391.1565" y2="144.0879" gradientTransform="matrix(1 0 0 -1 146.02 257)">
						<stop  offset="0.0982" style="stop-color:#C4C4C4"/>
						<stop  offset="0.5326" style="stop-color:#686868"/>
						<stop  offset="1" style="stop-color:#000000"/>
					</linearGradient>
					<path id="path5033" inkscape:connector-curvature="0" fill="url(#path5033_1_)" stroke="#231F20" stroke-miterlimit="10" d="
						M487.13,111.882c0-9.268,22.407-16.781,50.047-16.781c27.641,0,50.047,7.514,50.047,16.781v1.03c0,0,0-2.118,0-3.121
						s0-35.739,0-35.739v0.389c0-9.269-22.406-16.781-50.047-16.781c-27.64,0-50.047,7.513-50.047,16.781v-0.389
						c0,0,0,34.52,0,35.729s0,3.132,0,3.132V111.882z"/>
					<g id="g5035">
						<path id="path5037" inkscape:connector-curvature="0" fill="#FFFFFF" stroke="#231F20" stroke-miterlimit="10" d="
							M587.021,151.283c0,0,0,34.738,0,35.74s0.354,3.12,0.354,3.12c0,9.269-22.761,16.779-50.4,16.779
							c-27.64,0-50.399-7.512-50.399-16.779c0,0,0.354-1.924,0.354-3.133s0-35.729,0-35.729c0,9.268,22.407,16.781,50.047,16.781
							C564.615,168.064,587.021,160.551,587.021,151.283L587.021,151.283z"/>
					</g>
					<g id="g5039">
						<path id="path5041" inkscape:connector-curvature="0" fill="#FFFFFF" stroke="#231F20" stroke-miterlimit="10" d="
							M587.021,112.601c0,0,0,34.736,0,35.739c0,1.002,0.354,3.121,0.354,3.121c0,9.268-22.761,16.779-50.4,16.779
							c-27.64,0-50.399-7.513-50.399-16.779c0,0,0.354-1.923,0.354-3.132s0-35.729,0-35.729c0,9.269,22.407,16.78,50.047,16.78
							C564.615,129.381,587.021,121.869,587.021,112.601z"/>
					</g>
					<g id="g5043">
						<path id="path5045" inkscape:connector-curvature="0" fill="#FFFFFF" stroke="#231F20" stroke-miterlimit="10" d="
							M587.021,73.628c0,0,0,34.737,0,35.739s0.354,3.12,0.354,3.12c0,9.269-22.761,16.78-50.4,16.78
							c-27.64,0-50.399-7.513-50.399-16.78c0,0,0.354-1.922,0.354-3.131s0-35.729,0-35.729c0,9.269,22.407,16.78,50.047,16.78
							C564.615,90.409,587.021,82.896,587.021,73.628z"/>
					</g>
					<g id="g5047">
						<polygon id="polygon5049" fill="#FFFFFF" stroke="#000000" stroke-miterlimit="10" points="513.907,66.381 500.732,80.875 
							560.039,80.875 573.216,66.381 						"/>
						<line id="line5051" fill="none" stroke="#70BF41" stroke-width="2" x1="513.907" y1="72.311" x2="562.662" y2="72.311"/>
					</g>
				</g>
				<text id="text5053" transform="matrix(1 0 0 1 511.9417 227.6279)" font-family="'Helvetica'" font-size="12">repository</text>
			</g>
			
				<rect id="rect4762" x="140.142" y="323.119" transform="matrix(-0.9805 -0.1967 0.1967 -0.9805 376.5449 697.6349)" fill="none" width="165.547" height="14.001"/>
		</g>
		<g id="g5317">
			<rect id="rect5294" x="-47.468" y="277.028" fill="#45BEEE" width="30.604" height="122.711"/>
			<rect id="rect5124" x="-47.468" y="369.135" fill="#45BEEE" width="99.924" height="30.604"/>
			<polygon id="polygon5126" fill="#45BEEE" points="49.096,353.938 49.096,414.062 89.648,383.53 			"/>
			<text id="text5128" transform="matrix(1 0 0 1 -33.9872 386.7168)" font-family="'Consolas'" font-size="12">git push origin</text>
		</g>
	</g>
</g>
</svg>
